<svg width="65" height="55" viewBox="0 0 65 55" fill="none" xmlns="http://www.w3.org/2000/svg">
<path d="M34.4753 0.171649C35.105 -0.0511491 35.7909 -0.0571053 36.4245 0.154071L62.9089 8.9822C63.7865 9.27472 63.8305 10.4994 62.9763 10.8543L34.0769 22.8591L33.8015 22.9578C33.2435 23.1281 32.6477 23.1315 32.0876 22.9685L31.8112 22.8738L5.41183 12.3133C4.55538 11.9707 4.57946 10.75 5.44894 10.4422L34.4753 0.171649ZM35.9509 1.57692C35.6341 1.47131 35.2902 1.4743 34.9753 1.58571L7.19992 11.4129L32.3689 21.4812C32.7327 21.6266 33.1389 21.6236 33.5007 21.4734L61.1648 9.98122L35.9509 1.57692Z" fill="currentColor"/>
<path d="M63.1634 19.6101C63.7839 20.0322 63.7381 21.0377 62.9769 21.3543L34.0774 33.3591L33.8021 33.4578C33.2443 33.6281 32.6482 33.6314 32.0882 33.4685L31.8118 33.3738L5.4124 22.8133C4.5714 22.4768 4.57977 21.2957 5.40362 20.9617C5.5375 21.059 5.67968 21.1474 5.83037 21.2224L7.14776 21.8777C7.169 21.8883 7.19074 21.8979 7.21221 21.908L7.20049 21.9129L32.3694 31.9812C32.7331 32.1265 33.1396 32.1236 33.5013 31.9734L60.4583 20.7742C60.4884 20.7623 60.5194 20.7528 60.5491 20.74L60.719 20.6658L61.1653 20.4812L61.1556 20.4773L63.1585 19.6131C63.1602 19.6123 63.1617 19.6109 63.1634 19.6101Z" fill="currentColor"/>
<path d="M63.1676 30.1121C63.7844 30.5357 63.7364 31.5385 62.9762 31.8543L34.0767 43.8592L33.8013 43.9578C33.2435 44.128 32.6475 44.1315 32.0875 43.9686L31.8111 43.8738L5.41166 33.3133C4.57162 32.9769 4.58005 31.7977 5.40189 31.4627L7.23978 32.3982L7.19974 32.4129L11.6412 34.1892L12.3951 34.4949C12.4384 34.5125 12.4829 34.5283 12.5269 34.5437L32.3687 42.4813C32.7324 42.6266 33.1388 42.6235 33.5006 42.4734L57.0865 32.6746C57.2003 32.6414 57.313 32.604 57.4225 32.5574L59.5524 31.6502L61.1647 30.9812L61.1422 30.9734L63.1676 30.1121Z" fill="currentColor"/>
<path d="M62.9915 40.5164C63.7873 40.8565 63.8027 42.0108 62.9768 42.3543L34.0773 54.3592L33.8019 54.4578C33.2441 54.6281 32.6481 54.6314 32.0881 54.4686L31.8117 54.3739L5.41216 43.8133C4.57115 43.4769 4.57953 42.2957 5.40337 41.9617C5.44583 41.9826 5.48834 42.0038 5.53228 42.0222L7.19049 42.8963L7.21686 42.906L7.20026 42.9129L32.3693 52.9813C32.733 53.1265 33.1394 53.1236 33.5011 52.9735L57.9114 42.8318C57.9961 42.8048 58.0802 42.7755 58.1624 42.741L60.718 41.6668L61.1653 41.4812L61.1624 41.4802L61.5901 41.3006L62.9915 40.5164Z" fill="currentColor"/>
<path d="M5.61337 32.2127L5.8458 32.9783C5.31422 33.1395 4.84291 33.4557 4.49228 33.8865L4.17392 34.2781C3.83352 34.6965 3.57183 35.1733 3.40244 35.6854L3.27646 36.0682C3.05399 36.7409 2.97398 37.4527 3.04209 38.158L3.05087 38.2479C3.13209 39.089 3.43502 39.8938 3.92978 40.5789C4.14888 40.8823 4.40377 41.1582 4.68759 41.4021L4.78134 41.4832C5.16369 41.8117 5.58716 42.0892 6.04111 42.3084L6.55771 42.5574L6.21005 43.2781L5.86142 43.9988L5.34482 43.7488C4.76605 43.4693 4.22588 43.116 3.73837 42.6971L3.64462 42.616C3.26544 42.2902 2.92561 41.9207 2.63291 41.5154C1.97202 40.6003 1.56666 39.5257 1.4581 38.4021L1.44931 38.3113C1.35988 37.3846 1.4646 36.4492 1.75693 35.5652L1.88291 35.1834C2.11336 34.4865 2.46946 33.8377 2.93271 33.2684L3.25107 32.8768C3.80298 32.1985 4.54512 31.7007 5.38193 31.4471L5.61337 32.2127Z" fill="currentColor"/>
<path d="M58.707 36.411V36.2166C58.7071 35.4741 58.8289 34.7363 59.0674 34.033L59.1816 33.6952C59.3623 33.1626 59.623 32.6605 59.9541 32.2059C60.4688 31.4994 61.1424 30.9238 61.9209 30.5262L62.4629 30.2489L62.8262 30.9618L63.1904 31.6746L62.6484 31.951C62.0938 32.2343 61.6138 32.6448 61.2471 33.1483C61.0113 33.472 60.8259 33.8295 60.6973 34.2088L60.582 34.5467C60.3997 35.0845 60.3067 35.6488 60.3066 36.2166V36.411C60.3066 37.0333 60.4419 37.6484 60.7021 38.2137C60.9013 38.6463 61.1703 39.0431 61.499 39.3875L61.6006 39.493C61.891 39.7973 62.2171 40.0654 62.5723 40.2909L63.4346 40.8377L62.5771 42.1893L61.7158 41.6424C61.2509 41.3473 60.8226 40.9968 60.4424 40.5985L60.3418 40.492C59.891 40.0197 59.5211 39.4758 59.248 38.8827C58.8913 38.1076 58.707 37.2642 58.707 36.411Z" fill="currentColor"/>
<path d="M33.2982 44.0228L32.6029 44.2435C31.8502 44.4824 31.1847 44.9394 30.6927 45.557C30.3947 45.9312 30.1672 46.3568 30.0199 46.8119L29.9036 47.1703C29.707 47.7776 29.6366 48.4186 29.6966 49.0541L29.7054 49.1547C29.7762 49.9036 30.0427 50.6215 30.4769 51.2357C30.6717 51.5112 30.8981 51.7631 31.1517 51.9857L31.2083 52.0346C31.555 52.3389 31.9424 52.5936 32.3597 52.7904L32.9896 53.0873L32.6478 53.8109L32.307 54.5346L31.6771 54.2377C31.1248 53.9772 30.6116 53.6405 30.1527 53.2377L30.096 53.1879C29.7481 52.8824 29.4375 52.5366 29.1702 52.1586C28.5747 51.3161 28.2097 50.3322 28.1126 49.3051L28.1038 49.2045C28.0233 48.352 28.1175 47.4918 28.3812 46.6771L28.4974 46.3187C28.7039 45.6808 29.0239 45.0854 29.4417 44.5609C30.1315 43.6949 31.0632 43.0531 32.1185 42.7181L32.8138 42.4974L33.2982 44.0228Z" fill="currentColor"/>
<path d="M5.67394 22.6839C5.5146 22.7084 5.35888 22.7546 5.21203 22.8207C4.95733 22.9349 4.73002 23.1097 4.5548 23.3265C4.40023 23.5172 4.24553 23.7081 4.09093 23.8988C3.80941 24.246 3.5916 24.6453 3.45226 25.0697C3.39614 25.2402 3.34043 25.4109 3.28429 25.5814C3.06362 26.251 2.98395 26.9671 3.05285 27.6683C3.05576 27.6982 3.05872 27.7283 3.06164 27.7582C3.14223 28.5925 3.44984 29.403 3.94152 30.0814C4.15988 30.3835 4.41365 30.6599 4.6964 30.9027C4.722 30.9247 4.74795 30.9471 4.77355 30.9691C5.12279 31.269 5.50918 31.5261 5.92101 31.7318C5.92296 31.7328 5.92492 31.7337 5.92687 31.7347C5.97145 31.7569 6.01672 31.7786 6.06164 31.8001C6.21809 31.8749 6.37425 31.952 6.52843 32.0316C6.30354 32.5151 6.07852 32.9992 5.85363 33.4828C5.69345 33.4162 5.534 33.3472 5.37609 33.2757C5.3174 33.2491 5.25898 33.2215 5.20128 33.1927C5.19872 33.1914 5.19604 33.1901 5.19347 33.1888C4.66176 32.9232 4.16266 32.591 3.71203 32.2035C3.68646 32.1815 3.66045 32.16 3.63488 32.138C3.25539 31.8118 2.91494 31.4403 2.62218 31.0345C1.96285 30.1229 1.55228 29.0331 1.4464 27.9134C1.44355 27.8836 1.44047 27.8534 1.43761 27.8236C1.34862 26.8985 1.4559 25.9551 1.74914 25.0736C1.80579 24.9031 1.86239 24.7324 1.91906 24.5619C2.12134 23.952 2.43566 23.3796 2.84191 22.8822C2.99714 22.6921 3.15247 22.502 3.30773 22.3119C3.64227 21.9012 4.07486 21.5713 4.55871 21.3568C4.83777 21.2328 5.13376 21.1468 5.43566 21.1019C5.51498 21.6293 5.59462 22.1566 5.67394 22.6839Z" fill="currentColor"/>
<path d="M58.8529 26.486V25.7662C58.8529 25.2766 58.9008 24.7877 58.9955 24.3073L59.1039 23.7535C59.2548 22.9876 59.5794 22.2665 60.0521 21.6451C60.4827 21.0793 61.0265 20.6092 61.6488 20.2653L62.4066 19.8463L63.1801 21.2467L62.4232 21.6657C61.9955 21.902 61.6215 22.225 61.3256 22.6139C61.0007 23.0409 60.7779 23.5366 60.6742 24.0631L60.5648 24.6168C60.4902 24.9954 60.4525 25.3804 60.4525 25.7662V26.486C60.4525 26.992 60.5585 27.4928 60.7631 27.9557C60.8893 28.2413 61.0517 28.5095 61.2465 28.7535L61.266 28.778C61.652 29.2616 62.1483 29.6457 62.7133 29.8981L63.1674 30.1012L62.515 31.5621L62.0609 31.359C61.2622 31.0022 60.5606 30.4588 60.015 29.775L59.9955 29.7516C59.715 29.4 59.481 29.0136 59.2992 28.6022C59.0047 27.9356 58.8529 27.2147 58.8529 26.486Z" fill="currentColor"/>
<path d="M33.351 33.6473L32.8705 33.7889C32.0981 34.0167 31.4043 34.4562 30.8686 35.0575C30.5036 35.4672 30.2204 35.9429 30.0336 36.4588L29.9389 36.7186C29.7211 37.32 29.6431 37.9634 29.7104 38.5995C29.7943 39.3928 30.1029 40.148 30.5981 40.7743C30.8051 41.036 31.0428 41.2735 31.3051 41.4794L31.4242 41.5731C31.8097 41.8756 32.2344 42.1249 32.6859 42.3153L33.435 42.6317L32.8139 44.1063L32.0639 43.7899C31.4814 43.5443 30.9342 43.2221 30.4369 42.8319L30.3178 42.7381C29.9561 42.4543 29.6282 42.1279 29.3432 41.7674C28.6605 40.9042 28.2353 39.8626 28.1195 38.7674C28.0268 37.8902 28.1346 37.0031 28.435 36.1737L28.5287 35.9139C28.7849 35.2066 29.1738 34.5547 29.6742 33.993C30.4085 33.1689 31.3587 32.566 32.4174 32.2538L32.8979 32.1122L33.351 33.6473Z" fill="currentColor"/>
<path d="M6.43567 10.9485L6.68176 11.7102L6.31555 11.8284C5.48012 12.0982 4.73977 12.6044 4.18567 13.2854C3.83713 13.7139 3.57004 14.2024 3.3966 14.7268L3.27649 15.0901C3.05399 15.7629 2.97402 16.4746 3.04211 17.1799L3.0509 17.2698C3.13211 18.1109 3.4351 18.9158 3.92981 19.6008C4.14891 19.9042 4.40379 20.1811 4.68762 20.425L4.86731 20.5793C5.18222 20.8499 5.53701 21.0701 5.91907 21.2327L5.60559 21.969L5.29309 22.7053C4.7596 22.4784 4.26404 22.1701 3.82434 21.7922L3.64465 21.6379C3.26547 21.3121 2.92564 20.9427 2.63293 20.5373C1.97207 19.6222 1.56665 18.5477 1.45813 17.4241L1.44934 17.3342C1.35985 16.4074 1.46459 15.4712 1.75696 14.5872L1.87707 14.2248C2.11164 13.5156 2.47392 12.8541 2.94543 12.2747C3.69451 11.3543 4.6941 10.6706 5.82336 10.3059L6.19055 10.1868L6.43567 10.9485Z" fill="currentColor"/>
<path d="M62.7932 9.90021L63.1838 10.5984L62.7454 10.8436C62.1995 11.1482 61.7261 11.5685 61.3596 12.075C61.1005 12.4332 60.8991 12.8298 60.761 13.2498L60.6145 13.6922C60.3853 14.3894 60.3052 15.127 60.3782 15.8572L60.3831 15.9109C60.4392 16.4717 60.5909 17.0194 60.8313 17.5291L60.9514 17.783C61.1025 18.1033 61.3051 18.3964 61.551 18.6512C61.8631 18.9744 62.2388 19.2299 62.6546 19.4002L63.1624 19.6082L62.5569 21.0887L62.0491 20.8807C61.428 20.6264 60.8658 20.2453 60.3997 19.7625C60.0324 19.382 59.7298 18.9439 59.5042 18.4656L59.384 18.2117C59.0658 17.5371 58.8655 16.8124 58.7913 16.0701L58.7864 16.0164C58.6912 15.0639 58.796 14.1016 59.095 13.1922L59.2405 12.7498C59.4301 12.1731 59.708 11.6294 60.0637 11.1375C60.5668 10.4421 61.2156 9.86442 61.9651 9.44611L62.4036 9.20196L62.7932 9.90021Z" fill="currentColor"/>
<path d="M33.2855 23.1555L32.8597 23.2863C32.0751 23.5269 31.3742 23.9855 30.8402 24.6086C30.4885 25.019 30.2172 25.4918 30.0394 26.0022L29.9349 26.301C29.7188 26.9214 29.6419 27.5819 29.7083 28.2356L29.7113 28.2717C29.7927 29.072 30.0934 29.8345 30.5804 30.4748C30.7889 30.7489 31.0294 30.9973 31.2962 31.215L31.3949 31.2951C31.7765 31.6064 32.1987 31.865 32.6497 32.0627L33.3724 32.3791L32.7298 33.844L32.0072 33.5275C31.4233 33.2716 30.877 32.9374 30.3831 32.5344L30.2845 32.4543C29.9201 32.1569 29.5917 31.817 29.307 31.4426C28.6418 30.5679 28.2306 29.5261 28.1195 28.4328L28.1165 28.3977C28.0264 27.5115 28.1312 26.6158 28.4242 25.7746L28.5287 25.4758C28.7721 24.7769 29.1438 24.1295 29.6253 23.5676C30.3566 22.7143 31.3156 22.0866 32.39 21.757L32.8167 21.6262L33.2855 23.1555Z" fill="currentColor"/>
</svg>

