<svg width="45" height="46" viewBox="0 0 45 46" fill="none" xmlns="http://www.w3.org/2000/svg">
<path d="M41.7679 13.4272C43.247 13.9801 44.0036 15.6226 43.4623 17.1059L33.8939 43.3178C33.3452 44.821 31.6742 45.5871 30.1771 45.0219L10.5863 37.6245C9.64785 37.2701 9.00467 36.4776 8.79822 35.5678C9.10813 35.9755 9.57368 36.265 10.1215 36.3393L13.265 36.7651L30.7953 43.3852C31.3811 43.6064 32.0347 43.3064 32.2494 42.7182L41.8177 16.5063C42.0296 15.926 41.7341 15.2834 41.1556 15.0668L35.9984 13.1381L36.2211 11.353L41.7679 13.4272Z" fill="currentColor"/>
<path d="M34.8266 6.54828C36.3919 6.7555 37.4971 8.18645 37.3022 9.75336L33.8471 37.5092C33.6492 39.0968 32.1932 40.2173 30.6078 40.0024L10.0033 37.2065C8.85619 37.0506 7.96298 36.2375 7.64392 35.1996C8.07101 35.8065 8.81796 36.1534 9.59998 36.0258L11.7387 35.6762L30.8432 38.268C31.4635 38.352 32.0334 37.9136 32.1108 37.2924L35.5658 9.53754C35.6422 8.92434 35.2097 8.36372 34.5971 8.28266L27.7572 7.37738L27.4418 5.57074L34.8266 6.54828Z" fill="currentColor"/>
<path d="M24.5159 0.312225C26.0735 0.052627 27.5489 1.0979 27.8207 2.65338L32.6316 30.207C32.9065 31.7831 31.8421 33.2801 30.2631 33.5381L9.74082 36.8892C8.16903 37.1455 6.68795 36.075 6.43827 34.5021L2.0647 6.94662C1.81713 5.387 2.87389 3.91894 4.43155 3.65933L24.5159 0.312225ZM4.71942 5.38549C4.1099 5.48708 3.69624 6.06195 3.79312 6.67223L8.16669 34.2277C8.2644 34.8433 8.84458 35.2623 9.4597 35.1619L29.981 31.811C30.5989 31.7099 31.0152 31.1241 30.9075 30.5074L26.0968 2.95474C25.9905 2.34601 25.4133 1.9368 24.8038 2.03839L4.71942 5.38549Z" fill="currentColor"/>
<path d="M9.23048 13.8194C8.93762 13.5265 8.9376 13.0516 9.23048 12.7587C9.52337 12.4658 9.99825 12.4658 10.2911 12.7587L13.1479 15.6154C13.4408 15.9083 13.4408 16.3832 13.1479 16.6761C12.855 16.969 12.3801 16.969 12.0872 16.6761L9.23048 13.8194Z" fill="currentColor"/>
<path d="M14.0458 10.071C13.9813 9.66209 14.2603 9.27772 14.6693 9.21295C15.0782 9.14817 15.4624 9.42751 15.5274 9.83639L16.222 14.2221C16.2868 14.6313 16.0077 15.0154 15.5986 15.0802C15.1894 15.145 14.8053 14.8659 14.7405 14.4568L14.0458 10.071Z" fill="currentColor"/>
<path d="M20.0063 11.1405C20.1944 10.7715 20.646 10.6247 21.0151 10.8127C21.3841 11.0008 21.5308 11.4524 21.3428 11.8215L19.5858 15.2698C19.3978 15.6388 18.9461 15.7856 18.5771 15.5975C18.208 15.4095 18.0613 14.9579 18.2493 14.5888L20.0063 11.1405Z" fill="currentColor"/>
</svg>

