<svg width="20" height="12" viewBox="0 0 20 12" fill="none" xmlns="http://www.w3.org/2000/svg">
<path d="M9.03075 8.90075C8.61877 9.30886 8.61568 9.97347 9.02379 10.3855C9.43191 10.7973 10.0966 10.8005 10.5085 10.3924L18.7309 2.24715C19.1429 1.83904 19.146 1.17442 18.7379 0.762444C18.3298 0.350487 17.6652 0.347381 17.2532 0.755478L9.03075 8.90075Z" fill="currentColor"/>
<path d="M10.4977 8.89842C10.911 9.30518 10.916 9.96971 10.5093 10.383C10.1025 10.7962 9.43796 10.8014 9.02469 10.3947L0.74814 2.24942C0.334941 1.84265 0.329785 1.17809 0.736504 0.764811C1.14327 0.351627 1.80784 0.346461 2.22111 0.753175L10.4977 8.89842Z" fill="currentColor"/>
</svg>

