<svg width="112" height="112" viewBox="0 0 112 112" fill="none" xmlns="http://www.w3.org/2000/svg">
<path d="M112 56C112 86.9279 86.9279 112 56 112C25.0721 112 0 86.9279 0 56C0 25.0721 25.0721 0 56 0C86.9279 0 112 25.0721 112 56Z" fill="white"/>
<path d="M107.473 56C107.473 84.428 84.428 107.473 56 107.473C27.572 107.473 4.5265 84.428 4.5265 56C4.5265 27.572 27.572 4.5265 56 4.5265C84.428 4.5265 107.473 27.572 107.473 56Z" fill="currentColor"/>
<path d="M98.3247 56C98.3247 79.3753 79.3753 98.3247 56 98.3247C32.6247 98.3247 13.6753 79.3753 13.6753 56C13.6753 32.6247 32.6247 13.6753 56 13.6753C79.3753 13.6753 98.3247 32.6247 98.3247 56Z" fill="white"/>
<path opacity="0.9" d="M75.57 56L46.215 73.76V38.24L75.57 56Z" fill="currentColor"/>
</svg>

