<svg width="78" height="78" viewBox="0 0 78 78" fill="none" xmlns="http://www.w3.org/2000/svg">
  <path d="M69.2734 38.0582L75.8486 50.6411L58.7912 47.6334L69.2734 38.0582Z" fill="currentColor"/>
  <path d="M8.72656 39.2234L19.2088 29.6481L2.15142 26.6404L8.72656 39.2234Z" fill="currentColor"/>
  <path d="M38.9321 8.52539C55.1556 8.52539 68.4856 19.4747 70.5753 34.3804L66.6 34.9287C64.5373 22.367 53.0845 12.5254 38.9321 12.5254C24.7796 12.5254 13.3268 22.367 11.2641 34.9287H7.21722C9.30697 20.0231 22.7087 8.52545 38.9321 8.52539Z" fill="currentColor"/>
  <path d="M11.1127 41.998C12.6816 55.0678 24.3791 65.4746 38.932 65.4746C53.4851 65.4746 65.1825 55.0678 66.7514 41.998H70.7777C69.1962 57.4215 55.5428 69.4746 38.932 69.4746C22.3213 69.4746 8.93156 58.2407 7.34999 42.8173L11.1127 41.998Z" fill="currentColor"/>
</svg>
