<svg width="85" height="85" viewBox="0 0 85 85" fill="none" xmlns="http://www.w3.org/2000/svg">
<path d="M78.6289 6.84637C81.9426 6.84637 84.6289 9.53267 84.6289 12.8464V60.7595C84.6289 64.0732 81.9426 66.7595 78.6289 66.7595H72.6758V25.3766C72.6758 22.0631 69.9893 19.3769 66.6758 19.3766H8.68558V12.8464C8.68558 9.53267 11.3719 6.84637 14.6856 6.84637H78.6289Z" fill="currentColor"/>
<path d="M66.6758 75.1536V78.1536H6.37106V75.1536H66.6758ZM69.6758 72.1536V25.3763C69.6758 23.7196 68.3324 22.3765 66.6758 22.3763H6.37106C4.71421 22.3763 3.37107 23.7194 3.37106 25.3763V72.1536C3.37118 73.8104 4.71428 75.1536 6.37106 75.1536V78.1536L6.06247 78.1458C2.99445 77.9904 0.534417 75.5302 0.378876 72.4622L0.371063 72.1536V25.3763C0.371065 22.0626 3.05736 19.3763 6.37106 19.3763H66.6758L66.9843 19.3841C70.1545 19.5449 72.6758 22.1662 72.6758 25.3763V72.1536L72.6679 72.4622C72.5124 75.5301 70.0522 77.9902 66.9843 78.1458L66.6758 78.1536V75.1536C68.3323 75.1534 69.6756 73.8103 69.6758 72.1536Z" fill="currentColor"/>
</svg>

