<svg width="85" height="85" viewBox="0 0 85 85" fill="none" xmlns="http://www.w3.org/2000/svg">
<path d="M0.545593 25.321C0.545593 22.0073 3.23188 19.321 6.54559 19.321H66.2898C69.6035 19.321 72.2898 22.0073 72.2898 25.321V72.0622C72.2898 75.3759 69.6035 78.0622 66.2898 78.0622H6.54559C3.23189 78.0622 0.545593 75.3759 0.545593 72.0622V25.321Z" fill="currentColor"/>
<path d="M78.763 6.94557C81.9331 7.10638 84.4544 9.72767 84.4544 12.9378V60.4778L84.4466 60.7864C84.291 63.8542 81.8308 66.3144 78.763 66.47L78.4544 66.4778H72.2893V63.9778H78.4544C80.3871 63.9776 81.9542 62.4105 81.9544 60.4778V12.9378C81.9544 11.0049 80.3872 9.43796 78.4544 9.43776H14.8011C12.8682 9.43791 11.3011 11.0049 11.3011 12.9378V19.3206H8.80106V12.9378C8.80106 9.72765 11.3223 7.10634 14.4925 6.94557L14.8011 6.93776H78.4544L78.763 6.94557Z" fill="currentColor"/>
</svg>

